# xmcd
#
# Track frame offsets: 
#        150
#        13537
#        33677
#        52776
#        68830
#        87675
#        102955
#        121751
#        139044
#        155943
#        172931
#        189845
#        206262
#
# Disc length: 2979 seconds
#
# Revision: 0
# Processed by: cddbd v1.5.2PL0 Copyright (c) Steve Scherf et al.
# Submitted via: ExactAudioCopy v1.0b3
#
DISCID=a70ba10d
DTITLE=Russell, Shawna - Goddess (Multimedia Edition)
DYEAR=2009
DGENRE=Americana
TTITLE0=Back On My Feet
TTITLE1=Cemetery Hill
TTITLE2=Goddess
TTITLE3=The Only One
TTITLE4=Strange Way
TTITLE5=Don't Put Yourself Out (I'm Not That Into You)
TTITLE6=Fire In The Desert
TTITLE7=Shed A Tear
TTITLE8=Should've Been Born With Wheels
TTITLE9=Everybody's Got A Story
TTITLE10=Just Let Go
TTITLE11=Get Out Of My Way
TTITLE12=Little Dixie
EXTD=
EXTT0=
EXTT1=
EXTT2=
EXTT3=
EXTT4=
EXTT5=
EXTT6=
EXTT7=
EXTT8=
EXTT9=
EXTT10=
EXTT11=
EXTT12=
PLAYORDER=
